Coordinates
version=1
nRows=5
nColumns=46
inDegrees=yes

Units are S.I. units (second, meters, Newtons, ...)
Angles are in degrees.

endheader
time	pelvis_tilt	pelvis_list	pelvis_rotation	pelvis_tx	pelvis_ty	pelvis_tz	bb_angle	bb_tx	bb_ty	bb_tz	hip_flexion_r	hip_adduction_r	hip_rotation_r	knee_angle_r	knee_angle_r_beta	ankle_angle_r	subtalar_angle_r	mtp_angle_r	crank_angle_r	hip_flexion_l	hip_adduction_l	hip_rotation_l	knee_angle_l	knee_angle_l_beta	ankle_angle_l	subtalar_angle_l	mtp_angle_l	crank_angle_l	lumbar_extension	lumbar_bending	lumbar_rotation	arm_flex_r	arm_add_r	arm_rot_r	elbow_flex_r	pro_sup_r	wrist_flex_r	wrist_dev_r	arm_flex_l	arm_add_l	arm_rot_l	elbow_flex_l	pro_sup_l	wrist_flex_l	wrist_dev_l
      5.00000000	    -34.83738648	     -0.64927140	    -11.44589510	      0.40636157	      1.19320789	     -0.28444513	      0.00000000	      0.50000000	      0.00000000	      0.25000000	     74.04648086	      6.72637180	      4.37271858	     72.73979644	      1.26954895	     14.80617498	     -7.04466500	      0.00000000	      0.00000000	     44.50866484	    -15.62778127	    -10.23612680	     52.05081772	      0.90845815	    -21.36469426	      2.00319402	      0.00000000	      0.00000000	    -62.37408582	     -1.55307804	      0.01063906	     60.30382587	    -27.92547350	     44.79475878	     99.19823321	     51.16717709	      0.00000000	      0.00000000	     27.61838972	    -23.33719078	     -2.25149721	    101.88553785	     53.24006548	      0.00000000	      0.00000000
      5.00500000	    -34.53515833	      0.11576722	    -11.04181849	      0.40656651	      1.19426798	     -0.28376892	      0.00000000	      0.50000000	      0.00000000	      0.25000000	     72.68358376	      6.25594269	      5.26368551	     70.34101805	      1.22768236	     13.68442995	     -7.58817594	      0.00000000	      0.00000000	     45.42804659	    -14.92797744	    -10.01173657	     54.29019811	      0.94754271	    -21.77788766	      1.46130732	      0.00000000	      0.00000000	    -62.18145337	     -1.96548273	      0.47038589	     59.39165097	    -29.34490565	     43.97191165	     99.50908006	     51.06095191	      0.00000000	      0.00000000	     29.60817121	    -22.91226797	      0.20016083	     99.56695208	     53.21846812	      0.00000000	      0.00000000
      5.01000000	    -34.14492293	      0.97318914	    -10.65501555	      0.40685008	      1.19512153	     -0.28310028	      0.00000000	      0.50000000	      0.00000000	      0.25000000	     71.26412152	      5.65848565	      6.23330678	     68.07510867	      1.18813478	     12.97783032	     -7.39635547	      0.00000000	      0.00000000	     46.21905930	    -14.21379315	    -10.00547626	     56.49220517	      0.98597498	    -22.06140548	      1.37193888	      0.00000000	      0.00000000	    -62.19981689	     -2.34870861	     -0.34097532	     59.23028932	    -29.60805038	     43.95916966	     99.42936620	     51.04860459	      0.00000000	      0.00000000	     29.67862578	    -22.83601293	      0.33261534	     99.40770368	     53.20847237	      0.00000000	      0.00000000
      5.01500000	    -33.97621811	      1.49826126	     -9.97347368	      0.40681202	      1.19565140	     -0.28331944	      0.00000000	      0.50000000	      0.00000000	      0.25000000	     70.02648669	      4.84704232	      6.59278358	     65.69498499	      1.14659379	     11.07822509	     -8.41164378	      0.00000000	      0.00000000	     47.41494360	    -13.37900596	     -9.32231614	     58.77938221	      1.02589375	    -22.35211898	      0.19917816	      0.00000000	      0.00000000	    -61.83256877	     -2.28718410	     -0.41503537	     59.18639203	    -30.45918283	     44.27038313	     98.89432985	     50.94281827	      0.00000000	      0.00000000	     31.18180210	    -22.98142201	      2.03353520	     97.34870489	     53.12076638	      0.00000000	      0.00000000
      5.02000000	    -33.70318575	      2.19605941	     -9.42633289	      0.40682930	      1.19598346	     -0.28316180	      0.00000000	      0.50000000	      0.00000000	      0.25000000	     68.70886273	      4.03813678	      7.14207586	     63.35877177	      1.10581918	      9.53457191	     -8.73962193	      0.00000000	      0.00000000	     48.39595019	    -12.56243849	     -9.01969323	     61.00355629	      1.06471291	    -22.39937619	     -0.43220814	      0.00000000	      0.00000000	    -61.59769705	     -2.47581118	     -1.03690796	     59.07066138	    -30.79455117	     44.32297975	     98.55233011	     50.88247485	      0.00000000	      0.00000000	     31.64653908	    -23.05645057	      2.62816211	     96.59223261	     53.07616559	      0.00000000	      0.00000000
